<?xml version="1.0" encoding="UTF-8"?>
<svg width="16" height="16" version="1.1" xmlns="http://www.w3.org/2000/svg">
  <path d="m8.4648-0.0019531c-0.31317 0.001327-0.62732 0.022847-0.94336 0.064453-2.33 0.30675-4.3365 1.6852-5.4883 3.6523l-0.0059-0.00391-0.01172-0.011719-0.015583-0.011715v-1.6875c0-0.55075-0.44925-1-1-1h-1v6h6v-1c0-0.55079-0.44921-1-1-1h-1.3965c0.81086-1.5916 2.3571-2.7134 4.1777-2.9531 0.22908-0.030159 0.45666-0.045341 0.68359-0.046875v-0.00195c2.2256-0.014869 4.2444 1.3105 5.1094 3.373 0.89113 2.1248 0.36652 4.5692-1.3203 6.1406a1 1 0 0 0-0.05078 1.4141 1 1 0 0 0 1.4141 0.05078c2.2946-2.1376 3.0153-5.4876 1.8027-8.3789-1.1754-2.8025-3.9329-4.6139-6.9551-4.5996z" fill="#222"/>
  <path d="m2.8201 9.4885c-1.8441 0-2.8201 1.2335-2.8201 3.4181 0 2.0383 0.84319 3.1082 2.3118 3.1082 1.3351 0 2.2194-0.88733 2.2194-2.2127 0-1.1882-0.69228-1.9552-1.727-1.9552-0.55074 0-1.0188 0.20976-1.3776 0.62107 0.083445-1.1059 0.57646-1.7006 1.4526-1.7006 0.3755 0 0.85058 0.10994 1.1927 0.27446l0.36677-1.1785c-0.44226-0.23765-0.99282-0.37491-1.6187-0.37491zm4.6901 0c-1.477 0-2.4706 1.3164-2.4706 3.2907 0 1.9377 0.97686 3.2355 2.4288 3.2355 1.4686 0 2.462-1.3172 2.462-3.3006 0-1.9377-0.97649-3.2256-2.4201-3.2256zm-0.033211 1.3525c0.57577 0 0.96747 0.77672 0.96747 1.9467 0 1.1243-0.38384 1.8731-0.94292 1.8731-0.59246 0-0.97612-0.776-0.97612-1.9368 0-1.1334 0.38415-1.883 0.95157-1.883zm-5.1232 2.258c0.46729 0 0.77539 0.32839 0.77539 0.822 0 0.4753-0.28374 0.78657-0.71765 0.78657-0.49232 0-0.81746-0.42049-0.93427-1.17 0.23365-0.27421 0.5594-0.43857 0.87646-0.43857z" fill="#222"/>
</svg>
