<?xml version="1.0" encoding="UTF-8"?>
<svg width="16" height="16" version="1.1" xmlns="http://www.w3.org/2000/svg">
  <style id="current-color-scheme" type="text/css">
    .ColorScheme-Text {
      color: #222;
    }
  </style>
  <path d="m4.5 1.5938c-3.4541 1.887-4.4268 5.6354-3.4434 8.6621 0.98343 3.0267 3.9734 5.488 7.877 4.9844a1.1 1.1 0 0 0 0.95117-1.2324 1.1 1.1 0 0 0-1.2324-0.94922c-2.8974 0.37384-4.7982-1.3166-5.502-3.4824s-0.15948-4.6521 2.4043-6.0527a1.1 1.1 0 0 0 0.4375-1.4922 1.1 1.1 0 0 0-1.4922-0.4375z" opacity="0.34902" fill="currentColor" class="ColorScheme-Text"/>
  <path d="m8 0.69922a1.1 1.1 0 0 0-1.0996 1.1016 1.1 1.1 0 0 0 1.0996 1.0996c2.5338 1e-7 4.2122 1.5617 4.8496 3.5234 0.63742 1.9618 0.19836 4.2138-1.8516 5.7031a1.1 1.1 0 0 0-0.24414 1.5352 1.1 1.1 0 0 0 1.5371 0.24414c2.8091-2.0409 3.5503-5.3985 2.6523-8.1621-0.89795-2.7636-3.4711-5.0449-6.9434-5.0449z" fill="currentColor" class="ColorScheme-Text"/>
</svg>
