<?xml version="1.0" encoding="UTF-8"?>
<svg width="16" height="16" version="1.1" xmlns="http://www.w3.org/2000/svg">
  <style id="current-color-scheme" type="text/css">
    .ColorScheme-Text {
      color: #222;
    }
  </style>
  <path d="m4.5 1.5938c-5.0152 2.7398-5.0152 10.073 0 12.812a1.1 1.1 0 0 0 1.4922-0.4375 1.1 1.1 0 0 0-0.4375-1.4922c-3.5916-1.9621-3.5916-6.991 0-8.9531a1.1 1.1 0 0 0 0.4375-1.4922 1.1 1.1 0 0 0-1.4922-0.4375z" opacity="0.34902" fill="currentColor" class="ColorScheme-Text"/>
  <path d="m8 0.69922a1.1 1.1 0 0 0-1.0996 1.1016 1.1 1.1 0 0 0 1.0996 1.0996c2.8297 1e-7 5.0996 2.2699 5.0996 5.0996 0 2.8297-2.2699 5.0996-5.0996 5.0996a1.1 1.1 0 0 0-1.0996 1.0996 1.1 1.1 0 0 0 1.0996 1.1016c4.0187 0 7.3008-3.2821 7.3008-7.3008 0-4.0186-3.2821-7.3008-7.3008-7.3008z" fill="currentColor" class="ColorScheme-Text"/>
</svg>
