<?xml version="1.0" encoding="UTF-8"?>
<svg width="16" height="16" version="1.1" xmlns="http://www.w3.org/2000/svg">
  <style id="current-color-scheme" type="text/css">
    .ColorScheme-Text {
      color: #222;
    }
  </style>
  <path d="m4.5 1.5938c-2.0012 1.0932-3.2126 2.7609-3.6543 4.5332-0.44166 1.7723-0.14977 3.6171 0.65039 5.1875 0.80016 1.5704 2.121 2.8898 3.8145 3.5742 1.6934 0.68441 3.7537 0.68537 5.8145-0.29102a1.1 1.1 0 0 0 0.52344-1.4648 1.1 1.1 0 0 0-1.4648-0.52344c-1.5686 0.74324-2.9052 0.70243-4.0488 0.24023s-2.0993-1.396-2.6797-2.5352c-0.58041-1.1391-0.77287-2.4594-0.47461-3.6562 0.29826-1.1968 1.0509-2.3026 2.5742-3.1348a1.1 1.1 0 0 0 0.4375-1.4922 1.1 1.1 0 0 0-1.4922-0.4375z" opacity="0.34902" fill="currentColor" class="ColorScheme-Text"/>
  <path d="m8 0.69922a1.1 1.1 0 0 0-1.0996 1.1016 1.1 1.1 0 0 0 1.0996 1.0996c4.234 1e-7 6.6157 4.6723 4.127 8.0977a1.1 1.1 0 0 0 0.24219 1.5371 1.1 1.1 0 0 0 1.5371-0.24414c3.4665-4.7713-0.008643-11.592-5.9062-11.592z" fill="currentColor" class="ColorScheme-Text"/>
</svg>
