<?xml version="1.0" encoding="UTF-8"?>
<svg width="16" height="16" version="1.1" xmlns="http://www.w3.org/2000/svg">
  <style id="current-color-scheme" type="text/css">
    .ColorScheme-PositiveText {
      color: #3ea554;
    }
  </style>
  <path d="m4.5 1.5938c-2.771 1.5138-4.0187 4.3907-3.7676 7.084 0.25109 2.6933 2.009 5.29 5.0117 6.2656 3.0028 0.97566 5.9521-0.091735 7.7383-2.123 1.7862-2.0313 2.4672-5.0919 1.1152-7.9453a1.1 1.1 0 0 0-1.4648-0.52344 1.1 1.1 0 0 0-0.52344 1.4648c0.9766 2.0612 0.4831 4.1151-0.7793 5.5508-1.2624 1.4356-3.2373 2.1871-5.4062 1.4824-2.1689-0.70472-3.3245-2.4735-3.502-4.377-0.17746-1.9035 0.63121-3.8557 2.6328-4.9492a1.1 1.1 0 0 0 0.4375-1.4922 1.1 1.1 0 0 0-1.4922-0.4375z" opacity="0.34902" fill="currentColor" class="success ColorScheme-PositiveText"/>
  <path d="m8 0.69922a1.1 1.1 0 0 0-1.0996 1.1016 1.1 1.1 0 0 0 1.0996 1.0996c1.0772 0 2.1266 0.33952 2.998 0.97266a1.1 1.1 0 0 0 1.5371-0.24219 1.1 1.1 0 0 0-0.24414-1.5371c-1.2471-0.90605-2.7495-1.3945-4.291-1.3945z" fill="currentColor" class="success ColorScheme-PositiveText"/>
</svg>
