<?xml version="1.0" encoding="UTF-8"?>
<svg width="16" height="16" version="1.1" xmlns="http://www.w3.org/2000/svg">
  <style id="current-color-scheme" type="text/css">
    .ColorScheme-PositiveText {
      color: #3ea554;
    }
  </style>
  <path d="m8 0.69922a1.1 1.1 0 0 0-1.0137 0.89453 1.1 1.1 0 0 0-1.2422-0.53711c-4.1525 1.3492-5.6465 5.3301-4.8418 8.6484 0.80466 3.3184 3.9488 6.1794 8.2383 5.5 3.7518-0.59423 6.4345-3.9925 6.1367-7.7793-0.2978-3.7869-3.4779-6.7266-7.2773-6.7266zm-0.88867 1.3125a1.1 1.1 0 0 0 0.88867 0.88867c2.6716-7e-7 4.8746 2.0371 5.084 4.6992 0.20934 2.662-1.6481 5.0156-4.2871 5.4336-3.2319 0.51189-5.1751-1.4509-5.7559-3.8457-0.58072-2.3948 0.24244-5.0167 3.3828-6.0371a1.1 1.1 0 0 0 0.6875-1.1387z" fill="currentColor" class="success ColorScheme-PositiveText"/>
</svg>
