<?xml version="1.0" encoding="UTF-8"?>
<svg width="16" height="16" version="1.1" xmlns="http://www.w3.org/2000/svg">
  <style id="current-color-scheme" type="text/css">
    .ColorScheme-PositiveText {
      color: #3ea554;
    }
  </style>
  <path d="m4.5 1.5938c-2.6372 1.4407-4.1248 4.3595-3.7402 7.3398a1.1 1.1 0 0 0 1.2324 0.95117 1.1 1.1 0 0 0 0.94922-1.2324c-0.26941-2.088 0.76572-4.1196 2.6133-5.1289a1.1 1.1 0 0 0 0.4375-1.4922 1.1 1.1 0 0 0-1.4922-0.4375z" opacity="0.34902" fill="currentColor" class="success ColorScheme-PositiveText"/>
  <path d="m8 0.69922a1.1 1.1 0 0 0-1.0996 1.1016 1.1 1.1 0 0 0 1.0996 1.0996c3.8551 0 6.295 3.9792 4.5449 7.4141-1.7501 3.4348-6.4059 3.8024-8.6719 0.68359a1.1 1.1 0 0 0-1.5352-0.24414 1.1 1.1 0 0 0-0.24414 1.5371c3.1765 4.3721 9.9568 3.8385 12.41-0.97656 2.4534-4.8151-1.0998-10.615-6.5039-10.615z" fill="currentColor" class="success ColorScheme-PositiveText"/>
</svg>
