<?xml version="1.0" encoding="UTF-8"?>
<svg width="16" height="16" version="1.1" xmlns="http://www.w3.org/2000/svg">
  <style id="current-color-scheme" type="text/css">
    .ColorScheme-PositiveText {
      color: #3ea554;
    }
  </style>
  <path d="m5.3379 1.5039a1.1 1.1 0 0 0-0.83789 0.089844c-4.2493 2.3214-5.086 8.1445-1.6621 11.568 3.4239 3.4239 9.2469 2.5872 11.568-1.6621a1.1 1.1 0 0 0-0.4375-1.4922 1.1 1.1 0 0 0-1.4922 0.4375c-1.6458 3.0126-5.6546 3.5876-8.082 1.1602-2.4274-2.4274-1.8525-6.4362 1.1602-8.082a1.1 1.1 0 0 0 0.4375-1.4922 1.1 1.1 0 0 0-0.6543-0.52734z" opacity="0.34902" fill="currentColor" class="success ColorScheme-PositiveText"/>
  <path d="m8 0.69922a1.1 1.1 0 0 0-1.0996 1.1016 1.1 1.1 0 0 0 1.0996 1.0996c2.8297 0 5.0996 2.2699 5.0996 5.0996a1.1 1.1 0 0 0 1.0996 1.0996 1.1 1.1 0 0 0 1.1016-1.0996c0-4.0186-3.2821-7.3008-7.3008-7.3008z" fill="currentColor" class="success ColorScheme-PositiveText"/>
</svg>
