<?xml version="1.0" encoding="UTF-8"?>
<svg width="16" height="16" version="1.1" xmlns="http://www.w3.org/2000/svg">
  <style id="current-color-scheme" type="text/css">
    .ColorScheme-Text {
      color: #222;
    }
  </style>
  <path d="m5.7441 1.0566c-0.72853 0.23671-1.4154 0.58685-2.0352 1.0371a1.1 1.1 0 0 0-0.24414 1.5371 1.1 1.1 0 0 0 1.5371 0.24219c0.43297-0.31457 0.91289-0.55728 1.4219-0.72266a1.1 1.1 0 0 0 0.70703-1.3867 1.1 1.1 0 0 0-1.3867-0.70703z" opacity="0.2" fill="currentColor" class="ColorScheme-Text"/>
  <path d="m8 0.69922a1.1 1.1 0 0 0-1.0996 1.1016 1.1 1.1 0 0 0 1.0996 1.0996c2.7667 0 4.4477 1.7761 4.959 3.9082 0.5113 2.1321-0.18173 4.4795-2.6445 5.7344-2.4628 1.2549-4.769 0.4364-6.1934-1.2305-1.4244-1.6669-1.8743-4.0722-0.24805-6.3105a1.1 1.1 0 0 0-0.24219-1.5371 1.1 1.1 0 0 0-1.5371 0.24414c-2.2058 3.036-1.6421 6.6937 0.35547 9.0312 1.9975 2.3376 5.5235 3.4664 8.8652 1.7637 3.3417-1.7027 4.5002-5.217 3.7832-8.207-0.71703-2.99-3.3449-5.5977-7.0977-5.5977z" fill="currentColor" class="ColorScheme-Text"/>
</svg>
