<?xml version="1.0" encoding="UTF-8"?>
<svg width="16" height="16" version="1.1" xmlns="http://www.w3.org/2000/svg">
  <style id="current-color-scheme" type="text/css">
    .ColorScheme-Text {
      color: #222;
    }
  </style>
  <path d="m5.3379 1.5039a1.1 1.1 0 0 0-0.83789 0.089844c-4.1747 2.2806-5.0742 7.9589-1.8086 11.418a1.1 1.1 0 0 0 1.5547 0.04492 1.1 1.1 0 0 0 0.044922-1.5547c-2.3133-2.4503-1.6936-6.363 1.2637-7.9785a1.1 1.1 0 0 0 0.4375-1.4922 1.1 1.1 0 0 0-0.6543-0.52734z" opacity="0.34902" fill="currentColor" class="ColorScheme-Text"/>
  <path d="m8 0.69922a1.1 1.1 0 0 0-1.0996 1.1016 1.1 1.1 0 0 0 1.0996 1.0996c3.1556-8e-7 5.5308 2.7797 5.0371 5.8965-0.49365 3.1168-3.6121 5.0279-6.6133 4.0527a1.1 1.1 0 0 0-1.3867 0.70703 1.1 1.1 0 0 0 0.70703 1.3867c4.2478 1.3802 8.7681-1.3894 9.4668-5.8008 0.69869-4.4114-2.7446-8.4434-7.2109-8.4434z" fill="currentColor" class="ColorScheme-Text"/>
</svg>
