<?xml version="1.0" encoding="UTF-8"?>
<svg width="16" height="16" version="1.1" xmlns="http://www.w3.org/2000/svg">
  <style id="current-color-scheme" type="text/css">
    .ColorScheme-Text {
      color: #222;
    }
  </style>
  <path d="m5.3379 1.5039a1.1 1.1 0 0 0-0.83789 0.089844c-2.9602 1.6171-4.1558 4.7401-3.7109 7.5488 0.44486 2.8088 2.5463 5.408 5.8613 6.0312a1.1 1.1 0 0 0 1.2852-0.87695 1.1 1.1 0 0 0-0.87695-1.2852c-2.411-0.45329-3.7804-2.2239-4.0957-4.2148-0.31533-1.9909 0.43888-4.0973 2.5918-5.2734a1.1 1.1 0 0 0 0.4375-1.4922 1.1 1.1 0 0 0-0.6543-0.52734z" opacity="0.34902" fill="currentColor" class="ColorScheme-Text"/>
  <path d="m8 0.69922a1.1 1.1 0 0 0-1.0996 1.1016 1.1 1.1 0 0 0 1.0996 1.0996c3.0153 8e-7 4.6731 2.0046 5.0371 4.3027 0.36399 2.2981-0.59322 4.7147-3.4609 5.6465a1.1 1.1 0 0 0-0.70703 1.3867 1.1 1.1 0 0 0 1.3867 0.70703c3.8471-1.25 5.4627-4.8812 4.9551-8.0859-0.50758-3.2047-3.1658-6.1582-7.2109-6.1582z" fill="currentColor" class="ColorScheme-Text"/>
</svg>
