<?xml version="1.0" encoding="UTF-8"?>
<svg width="16" height="16" version="1.1" xmlns="http://www.w3.org/2000/svg">
  <style id="current-color-scheme" type="text/css">
    .ColorScheme-PositiveText {
      color: #3ea554;
    }
  </style>
  <path d="m4.5 1.5938c-3.0038 1.641-4.1841 4.8199-3.6934 7.6523 0.49074 2.8325 2.6708 5.4276 6.0508 5.9629 3.38 0.53534 6.2556-1.2586 7.5977-3.8008 1.342-2.5422 1.2032-5.931-1.1465-8.4199a1.1 1.1 0 0 0-1.5547-0.044922 1.1 1.1 0 0 0-0.04492 1.5547c1.7119 1.8133 1.7527 4.0796 0.80078 5.8828-0.95189 1.8032-2.8444 3.0462-5.3066 2.6562-2.4623-0.38998-3.8804-2.1589-4.2285-4.168-0.34808-2.0091 0.3916-4.1501 2.5801-5.3457a1.1 1.1 0 0 0 0.4375-1.4922 1.1 1.1 0 0 0-1.4922-0.4375z" opacity="0.34902" fill="currentColor" class="success ColorScheme-PositiveText"/>
  <path d="m8 0.69922a1.1 1.1 0 0 0-1.0996 1.1016 1.1 1.1 0 0 0 1.0996 1.0996c0.53518 2e-7 1.0672 0.084621 1.5762 0.25a1.1 1.1 0 0 0 1.3867-0.70703 1.1 1.1 0 0 0-0.70703-1.3867c-0.72853-0.23672-1.4898-0.35742-2.2559-0.35742z" fill="currentColor" class="success ColorScheme-PositiveText"/>
</svg>
