<?xml version="1.0" encoding="UTF-8"?>
<svg width="16" height="16" version="1.1" xmlns="http://www.w3.org/2000/svg">
  <style id="current-color-scheme" type="text/css">
    .ColorScheme-Text {
      color: #222;
    }
  </style>
  <path d="m4.5 1.5938c-3.3855 1.8495-4.7495 6.045-3.0977 9.5312a1.1 1.1 0 0 0 1.4648 0.52344 1.1 1.1 0 0 0 0.52344-1.4648c-1.1619-2.4523-0.21735-5.3592 2.1641-6.6602a1.1 1.1 0 0 0 0.4375-1.4922 1.1 1.1 0 0 0-1.4922-0.4375z" opacity="0.34902" fill="currentColor" class="ColorScheme-Text"/>
  <path d="m8 0.69922a1.1 1.1 0 0 0-1.0996 1.1016 1.1 1.1 0 0 0 1.0996 1.0996c3.4965 0 5.9301 3.3504 4.8496 6.6758-1.0805 3.3254-5.0189 4.606-7.8477 2.5508a1.1 1.1 0 0 0-1.5371 0.24219 1.1 1.1 0 0 0 0.24414 1.5371c3.9866 2.8964 9.7117 1.0361 11.234-3.6504 1.5227-4.6864-2.0157-9.5566-6.9434-9.5566z" fill="currentColor" class="ColorScheme-Text"/>
</svg>
