<?xml version="1.0" encoding="UTF-8"?>
<svg width="16" height="16" version="1.1" xmlns="http://www.w3.org/2000/svg">
  <style id="current-color-scheme" type="text/css">
    .ColorScheme-PositiveText {
      color: #3ea554;
    }
  </style>
  <path d="m5.0312 1.332c-0.93455 0.41609-1.7725 1.023-2.457 1.7832a1.1 1.1 0 0 0 0.082031 1.5527 1.1 1.1 0 0 0 1.5547-0.080078c0.47825-0.53115 1.0619-0.95539 1.7148-1.2461a1.1 1.1 0 0 0 0.55664-1.4531 1.1 1.1 0 0 0-1.4512-0.55664z" opacity="0.3" fill="currentColor" class="success ColorScheme-PositiveText"/>
  <path d="m8 0.69922a1.1 1.1 0 0 0-1.0996 1.1016 1.1 1.1 0 0 0 1.0996 1.0996c2.5344-2e-7 4.2125 1.5618 4.8496 3.5234 0.63715 1.9617 0.19804 4.2121-1.8516 5.7012-2.0496 1.4891-4.3273 1.2122-5.9961 0-1.6688-1.2122-2.6347-3.2908-1.8516-5.7012a1.1 1.1 0 0 0-0.70703-1.3867 1.1 1.1 0 0 0-1.3867 0.70703c-1.0731 3.3027 0.30141 6.4544 2.6523 8.1621 2.3509 1.7077 5.7733 2.0407 8.582 0 2.8088-2.0407 3.55-5.3985 2.6523-8.1621-0.89761-2.7636-3.4707-5.0449-6.9434-5.0449z" fill="currentColor" class="success ColorScheme-PositiveText"/>
</svg>
