<?xml version="1.0" encoding="UTF-8"?>
<svg width="16" height="16" version="1.1" xmlns="http://www.w3.org/2000/svg">
  <style id="current-color-scheme" type="text/css">
    .ColorScheme-PositiveText {
      color: #3ea554;
    }
  </style>
  <path d="m6.4824 0.85938c-0.49896 0.10606-0.98517 0.26518-1.4512 0.47266a1.1 1.1 0 0 0-0.55859 1.4512 1.1 1.1 0 0 0 1.4531 0.55859c0.32556-0.14495 0.66509-0.25598 1.0137-0.33008a1.1 1.1 0 0 0 0.84766-1.3047 1.1 1.1 0 0 0-1.3047-0.84766z" opacity="0.1" fill="currentColor" class="success ColorScheme-PositiveText"/>
  <path d="m8 0.69922a1.1 1.1 0 0 0-1.0996 1.1016 1.1 1.1 0 0 0 1.0996 1.0996c3.0195 0 4.6748 2.0032 5.0371 4.3008 0.36234 2.2976-0.59876 4.7159-3.4629 5.6465-2.8641 0.93061-5.0618-0.46141-6.1191-2.5332-1.0574-2.0718-0.89592-4.6666 1.5469-6.4414a1.1 1.1 0 0 0 0.24414-1.5352 1.1 1.1 0 0 0-1.5371-0.24414c-3.275 2.3795-3.6876 6.3312-2.2129 9.2207 1.4747 2.8895 4.9157 4.874 8.7598 3.625 3.844-1.249 5.4604-4.8775 4.9551-8.082-0.50535-3.2045-3.1628-6.1582-7.2109-6.1582z" fill="currentColor" class="success ColorScheme-PositiveText"/>
</svg>
