<?xml version="1.0" encoding="UTF-8"?>
<svg width="16" height="16" version="1.1" xmlns="http://www.w3.org/2000/svg">
  <style id="current-color-scheme" type="text/css">
    .ColorScheme-Text {
      color: #222;
    }
  </style>
  <path d="m4.5 1.5938c-1.2272 0.67041-2.2358 1.6791-2.9062 2.9062a1.1 1.1 0 0 0 0.4375 1.4922 1.1 1.1 0 0 0 1.4922-0.4375c0.46844-0.85747 1.1738-1.5628 2.0312-2.0312a1.1 1.1 0 0 0 0.4375-1.4922 1.1 1.1 0 0 0-1.4922-0.4375z" opacity="0.34902" fill="currentColor" class="ColorScheme-Text"/>
  <path d="m8 0.69922a1.1 1.1 0 0 0-1.0996 1.1016 1.1 1.1 0 0 0 1.0996 1.0996c2.3187 0 3.9706 1.3608 4.7109 3.1484 0.74037 1.7877 0.53386 3.9173-1.1055 5.5566-1.6393 1.6393-3.769 1.8458-5.5566 1.1055-1.7877-0.74038-3.1484-2.3922-3.1484-4.7109a1.1 1.1 0 0 0-1.0996-1.0996 1.1 1.1 0 0 0-1.1016 1.0996c0 3.2053 1.9799 5.6972 4.5078 6.7441 2.5279 1.0469 5.6888 0.68422 7.9551-1.582 2.2663-2.2662 2.629-5.4272 1.582-7.9551-1.0469-2.5279-3.5389-4.5078-6.7441-4.5078z" fill="currentColor" class="ColorScheme-Text"/>
</svg>
