<?xml version="1.0" encoding="UTF-8"?>
<svg width="16" height="16" version="1.1" xmlns="http://www.w3.org/2000/svg">
  <style id="current-color-scheme" type="text/css">
    .ColorScheme-Text {
      color: #222;
    }
  </style>
  <path d="m5.3379 1.5039a1.1 1.1 0 0 0-0.83789 0.089844c-1.9206 1.0492-3.2695 2.9059-3.6738 5.0566a1.1 1.1 0 0 0 0.87695 1.2852 1.1 1.1 0 0 0 1.2852-0.87695c0.28274-1.5039 1.2235-2.8015 2.5664-3.5352a1.1 1.1 0 0 0 0.4375-1.4922 1.1 1.1 0 0 0-0.6543-0.52734z" opacity="0.34902" fill="currentColor" class="ColorScheme-Text"/>
  <path d="m8 0.69922a1.1 1.1 0 0 0-1.0996 1.1016 1.1 1.1 0 0 0 1.0996 1.0996c4.2342-3e-7 6.6137 4.6723 4.125 8.0977-2.4887 3.4253-7.6662 2.6051-8.9746-1.4219a1.1 1.1 0 0 0-1.3867-0.70703 1.1 1.1 0 0 0-0.70703 1.3867c1.8225 5.6091 9.3832 6.8063 12.85 2.0352 3.4665-4.7712-0.008518-11.592-5.9062-11.592z" fill="currentColor" class="ColorScheme-Text"/>
</svg>
