<?xml version="1.0" encoding="UTF-8"?>
<svg width="16" height="16" version="1.1" xmlns="http://www.w3.org/2000/svg">
  <style id="current-color-scheme" type="text/css">
    .ColorScheme-Text {
      color: #222;
    }
  </style>
  <path d="m4.5 1.5938c-4.665 2.5485-5.0914 9.1881-0.79102 12.312 4.3004 3.1244 10.483 0.66752 11.465-4.5566a1.1 1.1 0 0 0-0.87695-1.2852 1.1 1.1 0 0 0-1.2852 0.87695c-0.69992 3.7228-4.9453 5.4101-8.0098 3.1836-3.0645-2.2265-2.7715-6.7855 0.55273-8.6016a1.1 1.1 0 0 0 0.4375-1.4922 1.1 1.1 0 0 0-1.4922-0.4375z" opacity="0.34902" fill="currentColor" class="ColorScheme-Text"/>
  <path d="m8 0.69922a1.1 1.1 0 0 0-1.0996 1.1016 1.1 1.1 0 0 0 1.0996 1.0996c2.2138 2e-7 4.1655 1.418 4.8496 3.5234a1.1 1.1 0 0 0 1.3867 0.70703 1.1 1.1 0 0 0 0.70703-1.3867c-0.97594-3.0036-3.7852-5.0449-6.9434-5.0449z" fill="currentColor" class="ColorScheme-Text"/>
</svg>
