<?xml version="1.0" encoding="UTF-8"?>
<svg width="16" height="16" version="1.1" xmlns="http://www.w3.org/2000/svg">
  <style id="current-color-scheme" type="text/css">
    .ColorScheme-Text {
      color: #222;
    }
  </style>
  <path d="m4.5 1.5938c-3.8468 2.1015-4.9828 7.151-2.4062 10.697 2.5765 3.5463 7.7306 4.0267 10.918 1.0176a1.1 1.1 0 0 0 0.04492-1.5547 1.1 1.1 0 0 0-1.5547-0.04492c-2.2504 2.1246-5.8098 1.7929-7.6289-0.71094-1.8191-2.5038-1.0344-5.9908 1.6816-7.4746a1.1 1.1 0 0 0 0.4375-1.4922 1.1 1.1 0 0 0-1.4922-0.4375z" opacity="0.34902" fill="currentColor" class="ColorScheme-Text"/>
  <path d="m8 0.69922a1.1 1.1 0 0 0-1.0996 1.1016 1.1 1.1 0 0 0 1.0996 1.0996c3.4965 3e-7 5.9301 3.3504 4.8496 6.6758a1.1 1.1 0 0 0 0.70703 1.3867 1.1 1.1 0 0 0 1.3867-0.70703c1.5227-4.6865-2.0157-9.5566-6.9434-9.5566z" fill="currentColor" class="ColorScheme-Text"/>
</svg>
