<?xml version="1.0" encoding="UTF-8"?>
<svg width="16" height="16" version="1.1" xmlns="http://www.w3.org/2000/svg">
  <style id="current-color-scheme" type="text/css">
    .ColorScheme-Text {
      color: #222;
    }
  </style>
  <path d="m13.75 4.6602c0.17578-0.19922 0.26172-0.46094 0.24609-0.72656-0.019532-0.26562-0.14062-0.51172-0.33984-0.6875-0.19922-0.17578-0.46094-0.26172-0.72656-0.24609-0.26563 0.019531-0.51172 0.14062-0.6875 0.33984l-6.2969 7.1953-2.2422-2.2422c-0.39062-0.39062-1.0234-0.39062-1.4141 0-0.1875 0.1875-0.29297 0.44141-0.29297 0.70703s0.10547 0.51953 0.29297 0.70703l3 3c0.19531 0.19531 0.46484 0.30469 0.73828 0.29297 0.27734-0.007812 0.53906-0.13281 0.72266-0.33984z" fill="currentColor" class="ColorScheme-Text"/>
</svg>
