<?xml version="1.0" encoding="UTF-8"?>
<svg width="22" height="22" version="1.1" xmlns="http://www.w3.org/2000/svg">
  <style id="current-color-scheme" type="text/css">
    .ColorScheme-PositiveText {
      color: #3ea554;
    }
  </style>
  <path d="m7.5156 2.7793a1.25 1.25 0 0 0-0.95117 0.10352c-4.3883 2.3973-5.6087 7.1374-4.3613 10.977 1.2474 3.8391 5.0211 6.9543 9.9805 6.3145a1.25 1.25 0 0 0 1.0801-1.4004 1.25 1.25 0 0 0-1.4004-1.0781c-3.816 0.49237-6.3537-1.7485-7.2832-4.6094-0.92955-2.8609-0.19303-6.1651 3.1836-8.0098a1.25 1.25 0 0 0 0.49805-1.6953 1.25 1.25 0 0 0-0.74609-0.60156z" opacity="0.34902" fill="currentColor" class="success ColorScheme-PositiveText"/>
  <path d="m11 1.75a1.25 1.25 0 0 0-1.25 1.25 1.25 1.25 0 0 0 1.25 1.25c3.3417 0 5.5774 2.071 6.4199 4.6641 0.84254 2.5931 0.25038 5.5827-2.4531 7.5469a1.25 1.25 0 0 0-0.27539 1.7461 1.25 1.25 0 0 0 1.7461 0.27734c3.5662-2.591 4.498-6.8395 3.3594-10.344-1.1386-3.5042-4.3888-6.3906-8.7969-6.3906z" fill="currentColor" class="success ColorScheme-PositiveText"/>
</svg>
