<?xml version="1.0" encoding="UTF-8"?>
<svg width="22" height="22" version="1.1" xmlns="http://www.w3.org/2000/svg">
  <style id="current-color-scheme" type="text/css">
    .ColorScheme-Text {
      color: #222;
    }
  </style>
  <path d="m9.0762 1.9512c-0.63224 0.13439-1.2474 0.33476-1.8379 0.59766a1.25 1.25 0 0 0-0.63477 1.6504 1.25 1.25 0 0 0 1.6504 0.63477c0.43089-0.19185 0.88043-0.33748 1.3418-0.43555a1.25 1.25 0 0 0 0.96289-1.4844 1.25 1.25 0 0 0-1.4824-0.96289z" opacity="0.1" fill="currentColor" class="ColorScheme-Text"/>
  <path d="m11 1.75a1.25 1.25 0 0 0-1.25 1.25 1.25 1.25 0 0 0 1.25 1.25c3.9753 0 6.1875 2.6589 6.666 5.6934 0.47854 3.0345-0.81094 6.2474-4.582 7.4727-3.7711 1.2253-6.7031-0.61729-8.0996-3.3535s-1.1672-6.1868 2.0488-8.5234a1.25 1.25 0 0 0 0.27539-1.7461 1.25 1.25 0 0 0-1.7461-0.27734c-4.1618 3.0237-4.6754 8.0181-2.8047 11.684 1.8707 3.6655 6.215 6.1828 11.1 4.5957 4.8846-1.5871 6.9204-6.1771 6.2793-10.242-0.64106-4.0651-3.9925-7.8027-9.1367-7.8027z" fill="currentColor" class="ColorScheme-Text"/>
</svg>
