<?xml version="1.0" encoding="UTF-8"?>
<svg width="22" height="22" version="1.1" xmlns="http://www.w3.org/2000/svg">
  <style id="current-color-scheme" type="text/css">
    .ColorScheme-PositiveText {
      color: #3ea554;
    }
  </style>
  <path d="m6.5645 2.8828c-5.3878 2.9434-6.4467 10.317-2.1055 14.658 4.3412 4.3412 11.715 3.2824 14.658-2.1055a1.25 1.25 0 0 0-0.49805-1.6973 1.25 1.25 0 0 0-1.6953 0.49805c-2.1756 3.9825-7.4884 4.746-10.697 1.5371-3.2088-3.2088-2.4454-8.5216 1.5371-10.697a1.25 1.25 0 0 0 0.49805-1.6953 1.25 1.25 0 0 0-1.6973-0.49805z" opacity="0.34902" fill="currentColor" class="success ColorScheme-PositiveText"/>
  <path d="m11 1.75a1.25 1.25 0 0 0-1.25 1.25 1.25 1.25 0 0 0 1.25 1.25c3.7427 0 6.75 3.0073 6.75 6.75a1.25 1.25 0 0 0 1.25 1.25 1.25 1.25 0 0 0 1.25-1.25c0-5.0938-4.1562-9.25-9.25-9.25z" fill="currentColor" class="success ColorScheme-PositiveText"/>
</svg>
