<?xml version="1.0" encoding="UTF-8"?>
<svg width="22" height="22" version="1.1" xmlns="http://www.w3.org/2000/svg">
  <style id="current-color-scheme" type="text/css">
    .ColorScheme-PositiveText {
      color: #3ea554;
    }
  </style>
  <path d="m6.5645 2.8828c-3.7574 2.0527-5.2652 6.0032-4.7012 9.5645 0.56405 3.5612 3.2199 6.8515 7.4277 7.6426a1.25 1.25 0 0 0 1.459-0.99609 1.25 1.25 0 0 0-0.99805-1.4609c-3.1806-0.59798-5.0011-2.9443-5.418-5.5762-0.41685-2.6319 0.58959-5.4289 3.4297-6.9805a1.25 1.25 0 0 0 0.49805-1.6953 1.25 1.25 0 0 0-1.6973-0.49805z" opacity="0.34902" fill="currentColor" class="success ColorScheme-PositiveText"/>
  <path d="m11 1.75a1.25 1.25 0 0 0-1.25 1.25 1.25 1.25 0 0 0 1.25 1.25c3.97 2e-7 6.1853 2.6582 6.666 5.6934 0.48071 3.0351-0.8044 6.2498-4.5801 7.4766a1.25 1.25 0 0 0-0.80274 1.5742 1.25 1.25 0 0 0 1.5762 0.80273c4.8886-1.5884 6.9212-6.1788 6.2773-10.244-0.64388-4.0653-3.9965-7.8027-9.1367-7.8027z" fill="currentColor" class="success ColorScheme-PositiveText"/>
</svg>
