<?xml version="1.0" encoding="UTF-8"?>
<svg width="22" height="22" version="1.1" xmlns="http://www.w3.org/2000/svg">
  <style id="current-color-scheme" type="text/css">
    .ColorScheme-Text {
      color: #222;
    }
  </style>
  <path d="m6.5645 2.8828c-6.4635 3.531-6.3258 13.016 0.23633 16.359 6.5621 3.3436 14.316-2.1212 13.373-9.4258a1.25 1.25 0 0 0-1.4004-1.0801 1.25 1.25 0 0 0-1.0781 1.4004c0.70359 5.453-4.8611 9.373-9.7598 6.877-4.8987-2.496-4.997-9.3015-0.17188-11.938a1.25 1.25 0 0 0 0.49805-1.6953 1.25 1.25 0 0 0-1.6973-0.49805z" opacity="0.34902" fill="currentColor" class="ColorScheme-Text"/>
  <path d="m11 1.75a1.25 1.25 0 0 0-1.25 1.25 1.25 1.25 0 0 0 1.25 1.25c2.1619 0 4.1902 1.0342 5.4609 2.7832a1.25 1.25 0 0 0 1.7461 0.27539 1.25 1.25 0 0 0 0.27734-1.7461c-1.7397-2.3945-4.5246-3.8125-7.4844-3.8125z" fill="currentColor" class="ColorScheme-Text"/>
</svg>
