<?xml version="1.0" encoding="UTF-8"?>
<svg width="22" height="22" version="1.1" xmlns="http://www.w3.org/2000/svg">
  <style id="current-color-scheme" type="text/css">
    .ColorScheme-PositiveText {
      color: #3ea554;
    }
  </style>
  <path d="m6.5645 2.8828c-4.8766 2.6641-6.315 9.0591-3.0488 13.555 3.2662 4.4956 9.7933 5.1037 13.834 1.2891a1.25 1.25 0 0 0 0.05078-1.7676 1.25 1.25 0 0 0-1.7676-0.05078c-2.9759 2.8095-7.6882 2.3696-10.094-0.94141-2.4056-3.311-1.367-7.9285 2.2246-9.8906a1.25 1.25 0 0 0 0.49805-1.6953 1.25 1.25 0 0 0-1.6973-0.49805z" opacity="0.34902" fill="currentColor" class="success ColorScheme-PositiveText"/>
  <path d="m11 1.75a1.25 1.25 0 0 0-1.25 1.25 1.25 1.25 0 0 0 1.25 1.25c4.6218 1e-7 7.8481 4.4403 6.4199 8.8359a1.25 1.25 0 0 0 0.80273 1.5742 1.25 1.25 0 0 0 1.5742-0.80078c1.9308-5.9423-2.5488-12.109-8.7969-12.109z" fill="currentColor" class="success ColorScheme-PositiveText"/>
</svg>
