<?xml version="1.0" encoding="UTF-8"?>
<svg width="22" height="22" version="1.1" xmlns="http://www.w3.org/2000/svg">
  <style id="current-color-scheme" type="text/css">
    .ColorScheme-Text {
      color: #222;
    }
  </style>
  <path d="m7.5156 2.7793a1.25 1.25 0 0 0-0.95117 0.10352c-5.293 2.8916-6.4314 10.081-2.291 14.467a1.25 1.25 0 0 0 1.7676 0.05078 1.25 1.25 0 0 0 0.050781-1.7676c-3.0582-3.2394-2.2377-8.4208 1.6719-10.557a1.25 1.25 0 0 0 0.49805-1.6953 1.25 1.25 0 0 0-0.74609-0.60156z" opacity="0.34902" fill="currentColor" class="ColorScheme-Text"/>
  <path d="m11 1.75a1.25 1.25 0 0 0-1.25 1.25 1.25 1.25 0 0 0 1.25 1.25c4.1727-2e-7 7.3188 3.6854 6.666 7.8066-0.65275 4.1213-4.7835 6.6527-8.752 5.3633a1.25 1.25 0 0 0-1.5742 0.80273 1.25 1.25 0 0 0 0.80078 1.5742c5.385 1.7497 11.11-1.7572 11.996-7.3496 0.88575-5.5924-3.4746-10.697-9.1367-10.697z" fill="currentColor" class="ColorScheme-Text"/>
</svg>
