<?xml version="1.0" encoding="UTF-8"?>
<svg width="22" height="22" version="1.1" xmlns="http://www.w3.org/2000/svg">
  <style id="current-color-scheme" type="text/css">
    .ColorScheme-Text {
      color: #222;
    }
  </style>
  <path d="m6.5645 2.8828c-1.555 0.84949-2.8321 2.1267-3.6816 3.6816a1.25 1.25 0 0 0 0.49805 1.6973 1.25 1.25 0 0 0 1.6953-0.49805c0.61998-1.1349 1.5526-2.0675 2.6875-2.6875a1.25 1.25 0 0 0 0.49805-1.6953 1.25 1.25 0 0 0-1.6973-0.49805z" opacity="0.34902" fill="currentColor" class="ColorScheme-Text"/>
  <path d="m11 1.75a1.25 1.25 0 0 0-1.25 1.25 1.25 1.25 0 0 0 1.25 1.25c3.0601 0 5.2574 1.8024 6.2363 4.166 0.97892 2.3636 0.70063 5.1939-1.4629 7.3574-2.1635 2.1635-4.9938 2.4418-7.3574 1.4629-2.3636-0.97892-4.166-3.1762-4.166-6.2363a1.25 1.25 0 0 0-1.25-1.25 1.25 1.25 0 0 0-1.25 1.25c0 4.0676 2.5062 7.2176 5.7109 8.5449 3.2048 1.3273 7.2041 0.87203 10.08-2.0039s3.3312-6.8753 2.0039-10.08c-1.3273-3.2048-4.4773-5.7109-8.5449-5.7109z" fill="currentColor" class="ColorScheme-Text"/>
</svg>
