<?xml version="1.0" encoding="UTF-8"?>
<svg width="22" height="22" version="1.1" xmlns="http://www.w3.org/2000/svg">
  <style id="current-color-scheme" type="text/css">
    .ColorScheme-Text {
      color: #222;
    }
  </style>
  <path d="m6.5645 2.8828c-3.5163 1.9209-5.0937 5.5602-4.7754 8.9746 0.31832 3.4144 2.5432 6.7014 6.3535 7.9395 3.8103 1.2381 7.5402-0.11426 9.8047-2.6895 2.2644-2.5752 3.1277-6.4475 1.4121-10.068a1.25 1.25 0 0 0-1.666-0.59375 1.25 1.25 0 0 0-0.59375 1.6641c1.289 2.7205 0.63797 5.4494-1.0312 7.3477-1.6692 1.8983-4.2915 2.8931-7.1543 1.9629-2.8628-0.93017-4.4001-3.2761-4.6348-5.793-0.23465-2.5169 0.84244-5.1075 3.4844-6.5508a1.25 1.25 0 0 0 0.49805-1.6953 1.25 1.25 0 0 0-1.6973-0.49805z" opacity="0.34902" fill="currentColor" class="ColorScheme-Text"/>
  <path d="m11 1.75a1.25 1.25 0 0 0-1.25 1.25 1.25 1.25 0 0 0 1.25 1.25c1.4256 0 2.8134 0.45111 3.9668 1.2891a1.25 1.25 0 0 0 1.7461-0.27734 1.25 1.25 0 0 0-0.27539-1.7461c-1.5802-1.1481-3.4842-1.7656-5.4375-1.7656z" fill="currentColor" class="ColorScheme-Text"/>
</svg>
