<?xml version="1.0" encoding="UTF-8"?>
<svg width="22" height="22" version="1.1" xmlns="http://www.w3.org/2000/svg">
  <style id="current-color-scheme" type="text/css">
    .ColorScheme-Text {
      color: #222;
    }
  </style>
  <path d="m8.1406 2.2031c-0.92314 0.29995-1.7929 0.74197-2.5781 1.3125a1.25 1.25 0 0 0-0.27539 1.7461 1.25 1.25 0 0 0 1.7461 0.27734c0.57304-0.41634 1.2072-0.7401 1.8809-0.95898a1.25 1.25 0 0 0 0.80273-1.5742 1.25 1.25 0 0 0-1.5762-0.80273z" opacity="0.2" fill="currentColor" class="ColorScheme-Text"/>
  <path d="m11 1.75a1.25 1.25 0 0 0-1.25 1.25 1.25 1.25 0 0 0 1.25 1.25c3.6459 0 5.8869 2.3567 6.5625 5.1738 0.67558 2.8171-0.25258 5.9362-3.498 7.5898s-6.3152 0.57157-8.1973-1.6309c-1.882-2.2024-2.4711-5.4-0.32812-8.3496a1.25 1.25 0 0 0-0.27734-1.7461 1.25 1.25 0 0 0-1.7461 0.27539c-2.8016 3.856-2.0822 8.4807 0.45117 11.445 2.5333 2.9646 6.9882 4.395 11.232 2.2324 4.2442-2.1626 5.7043-6.6083 4.7949-10.4-0.90937-3.7921-4.2278-7.0898-8.9941-7.0898z" fill="currentColor" class="ColorScheme-Text"/>
</svg>
