<?xml version="1.0" encoding="UTF-8"?>
<svg width="22" height="22" version="1.1" xmlns="http://www.w3.org/2000/svg">
  <style id="current-color-scheme" type="text/css">
    .ColorScheme-Text {
      color: #222;
    }
  </style>
  <path d="m6.5645 2.8828c-2.4337 1.3295-4.1419 3.6828-4.6543 6.4082a1.25 1.25 0 0 0 0.99609 1.459 1.25 1.25 0 0 0 1.4609-0.99805c0.37419-1.9903 1.6192-3.7049 3.3965-4.6758a1.25 1.25 0 0 0 0.49805-1.6953 1.25 1.25 0 0 0-1.6973-0.49805z" opacity="0.34902" fill="currentColor" class="ColorScheme-Text"/>
  <path d="m11 1.75a1.25 1.25 0 0 0-1.25 1.25 1.25 1.25 0 0 0 1.25 1.25c5.5916-1e-7 8.7474 6.1934 5.4609 10.717-3.2864 4.5234-10.153 3.437-11.881-1.8809a1.25 1.25 0 0 0-1.5742-0.80274 1.25 1.25 0 0 0-0.80273 1.5762c2.312 7.1157 11.882 8.6309 16.279 2.5781s-5.03e-4 -14.688-7.4824-14.688z" fill="currentColor" class="ColorScheme-Text"/>
</svg>
