<?xml version="1.0" encoding="UTF-8"?>
<svg width="22" height="22" version="1.1" xmlns="http://www.w3.org/2000/svg">
  <style id="current-color-scheme" type="text/css">
    .ColorScheme-PositiveText {
      color: #3ea554;
    }
  </style>
  <path d="m7.5156 2.7793a1.25 1.25 0 0 0-0.95117 0.10352c-6.3616 3.4754-6.3616 12.759 0 16.234a1.25 1.25 0 0 0 1.6973-0.49805 1.25 1.25 0 0 0-0.49805-1.6953c-4.744-2.5916-4.744-9.256 0-11.848a1.25 1.25 0 0 0 0.49805-1.6953 1.25 1.25 0 0 0-0.74609-0.60156z" opacity="0.34902" fill="currentColor" class="success ColorScheme-PositiveText"/>
  <path d="m11 1.75a1.25 1.25 0 0 0-1.25 1.25 1.25 1.25 0 0 0 1.25 1.25c3.7427 0 6.75 3.0073 6.75 6.75s-3.0073 6.75-6.75 6.75a1.25 1.25 0 0 0-1.25 1.25 1.25 1.25 0 0 0 1.25 1.25c5.0938 0 9.25-4.1562 9.25-9.25 0-5.0938-4.1562-9.25-9.25-9.25z" fill="currentColor" class="success ColorScheme-PositiveText"/>
</svg>
