<?xml version="1.0" encoding="UTF-8"?>
<svg width="22" height="22" version="1.1" xmlns="http://www.w3.org/2000/svg">
  <style id="current-color-scheme" type="text/css">
    .ColorScheme-Text {
      color: #222;
    }
  </style>
  <path d="m7.5156 2.7793a1.25 1.25 0 0 0-0.95117 0.10352c-4.3805 2.3931-6.0727 7.8689-3.8066 12.316 2.2661 4.4475 7.6923 6.2974 12.203 4.1602a1.25 1.25 0 0 0 0.59375-1.666 1.25 1.25 0 0 0-1.6641-0.59375c-3.3128 1.5696-7.24 0.23114-8.9043-3.0352s-0.43974-7.2308 2.7773-8.9883a1.25 1.25 0 0 0 0.49805-1.6953 1.25 1.25 0 0 0-0.74609-0.60156z" opacity="0.34902" fill="currentColor" class="ColorScheme-Text"/>
  <path d="m11 1.75a1.25 1.25 0 0 0-1.25 1.25 1.25 1.25 0 0 0 1.25 1.25c5.5913 0 8.7474 6.1933 5.4609 10.717a1.25 1.25 0 0 0 0.27734 1.7461 1.25 1.25 0 0 0 1.7461-0.27539c4.3977-6.0529-0.00262-14.688-7.4844-14.688z" fill="currentColor" class="ColorScheme-Text"/>
</svg>
