<?xml version="1.0" encoding="UTF-8"?>
<svg width="22" height="22" version="1.1" xmlns="http://www.w3.org/2000/svg">
  <style id="current-color-scheme" type="text/css">
    .ColorScheme-Text {
      color: #222;
    }
  </style>
  <path d="m6.5645 2.8828c-3.8131 2.0831-5.3019 6.1039-4.6797 9.6953 0.62223 3.5914 3.3774 6.8771 7.668 7.5566 4.2906 0.67957 7.9254-1.593 9.627-4.8164 1.7016-3.2234 1.5296-7.5085-1.4531-10.668a1.25 1.25 0 0 0-1.7676-0.050781 1.25 1.25 0 0 0-0.05078 1.7676c2.258 2.3918 2.3188 5.3996 1.0605 7.7832-1.2583 2.3836-3.7776 4.03-7.0254 3.5156-3.2478-0.51439-5.1336-2.8579-5.5938-5.5137-0.46012-2.6558 0.52746-5.4992 3.4141-7.0762a1.25 1.25 0 0 0 0.49805-1.6953 1.25 1.25 0 0 0-1.6973-0.49805z" opacity="0.34902" fill="currentColor" class="ColorScheme-Text"/>
  <path d="m11 1.75a1.25 1.25 0 0 0-1.25 1.25 1.25 1.25 0 0 0 1.25 1.25c0.70832 0 1.4123 0.1112 2.0859 0.33008a1.25 1.25 0 0 0 1.5742-0.80273 1.25 1.25 0 0 0-0.80078-1.5742c-0.92314-0.29995-1.8887-0.45312-2.8594-0.45312z" fill="currentColor" class="ColorScheme-Text"/>
</svg>
