<?xml version="1.0" encoding="UTF-8"?>
<svg width="22" height="22" version="1.1" xmlns="http://www.w3.org/2000/svg">
  <style id="current-color-scheme" type="text/css">
    .ColorScheme-PositiveText {
      color: #3ea554;
    }
  </style>
  <path d="m8.1934 2.5254a1.25 1.25 0 0 0-0.95508 0.023438c-1.1842 0.52724-2.2459 1.2984-3.1133 2.2617a1.25 1.25 0 0 0 0.09375 1.7656 1.25 1.25 0 0 0 1.7656-0.09375c0.63297-0.70298 1.4054-1.2637 2.2695-1.6484a1.25 1.25 0 0 0 0.63477-1.6504 1.25 1.25 0 0 0-0.69531-0.6582z" opacity="0.3" fill="currentColor" class="success ColorScheme-PositiveText"/>
  <path d="m11 1.75a1.25 1.25 0 0 0-1.25 1.25 1.25 1.25 0 0 0 1.25 1.25c3.3424 0 5.5777 2.0712 6.4199 4.6641 0.84218 2.5929 0.24996 5.583-2.4531 7.5469-2.7031 1.9639-5.7278 1.6022-7.9336 0-2.2058-1.6022-3.486-4.368-2.4531-7.5469a1.25 1.25 0 0 0-0.80273-1.5742 1.25 1.25 0 0 0-1.5742 0.80078c-1.3623 4.1928 0.37843 8.1765 3.3594 10.342s7.3073 2.5907 10.873 0 4.4995-6.8357 3.3613-10.34c-1.1382-3.5042-4.3883-6.3926-8.7969-6.3926z" fill="currentColor" class="success ColorScheme-PositiveText"/>
</svg>
