<?xml version="1.0" encoding="UTF-8"?>
<svg width="22" height="22" version="1.1" xmlns="http://www.w3.org/2000/svg">
  <style id="current-color-scheme" type="text/css">
    .ColorScheme-PositiveText {
      color: #3ea554;
    }
  </style>
  <path d="m11 1.75a1.25 1.25 0 0 0-1.25 1.25 1.25 1.25 0 0 0 1.25 1.25c3.534-2e-7 6.4516 2.6972 6.7285 6.2188 0.27693 3.5215-2.183 6.6385-5.6738 7.1914-3.4908 0.5529-6.7943-1.6512-7.6191-5.0859-0.82485-3.4348 1.1175-6.9021 4.4785-7.9941a1.25 1.25 0 0 0 0.80273-1.5742 1.25 1.25 0 0 0-1.5762-0.80273c-4.58 1.4881-7.259 6.2736-6.1348 10.955 1.1242 4.6814 5.6841 7.7258 10.439 6.9727 4.7554-0.75318 8.1528-5.0578 7.7754-9.8574-0.37745-4.7998-4.405-8.5234-9.2207-8.5234z" fill="currentColor" class="success ColorScheme-PositiveText"/>
</svg>
