<?xml version="1.0" encoding="UTF-8"?>
<svg xmlns="http://www.w3.org/2000/svg" width="16" height="16" viewBox="0 0 16 16">
  <style>
    .ColorScheme-Text { color: #222; }
  </style>
  <path class="ColorScheme-Text" fill="currentColor" d="M8 1.1 7.1.1 6.7 1.5 5.2.9 5.8 2.3 4.3 2.8 5.9 3.2 5.3 4.7 6.7 4 7.4 5.5 8 4 9.4 4.7 8.8 3.3 10.4 2.7 8.9 2.3 9.5.9Z"/>
  <path class="ColorScheme-Text" fill="currentColor" d="M8 3.2c-3.5 0-5.8 2.1-5.8 5.2C2.2 12 4.7 15 8 15s5.8-3 5.8-6.6c0-3.1-2.3-5.2-5.8-5.2Zm0 1.5c2.6 0 4.3 1.5 4.3 3.9 0 2.8-1.9 4.9-4.3 4.9s-4.3-2.1-4.3-4.9c0-2.4 1.7-3.9 4.3-3.9Z"/>
</svg>
