<?xml version="1.0" encoding="UTF-8"?>
<svg xmlns="http://www.w3.org/2000/svg" width="16" height="16" viewBox="0 0 16 16">
  <path fill="#26a269" d="M8 2 6.9.4l-.7 2L4.1 1.8l1 1.8-2 .6 2.1.6-.9 1.9 1.8-1 1 2 .7-2.1 2.1.9-1-1.8 2-.7-2.1-.5 1-2-1.8 1Z"/>
  <path fill="#c01c28" d="M8 3.2c-3.4 0-5.8 2.1-5.8 5.2C2.2 12 4.7 15 8 15s5.8-3 5.8-6.6c0-3.1-2.4-5.2-5.8-5.2Z"/>
  <path fill="#e01b24" d="M8 4.2c-2.7 0-4.6 1.7-4.6 4.4 0 3 2 5.3 4.6 5.3s4.6-2.3 4.6-5.3c0-2.7-1.9-4.4-4.6-4.4Z"/>
  <path fill="#f66151" d="M5.3 5.6c-1 .8-1.6 2-1.5 3.4.2-.9.7-1.9 1.5-2.5.8-.6 1.7-.9 2.6-.9-.9-.4-1.8-.3-2.6 0Z" opacity=".75"/>
</svg>
